<?xml version="1.0" encoding="utf-8"?>
<!-- Generator: Adobe Illustrator 25.0.0, SVG Export Plug-In . SVG Version: 6.00 Build 0)  -->
<svg version="1.1" id="图层_1" xmlns="http://www.w3.org/2000/svg" xmlns:xlink="http://www.w3.org/1999/xlink" x="0px" y="0px"
	 width="32px" height="32px" viewBox="0 0 32 32" style="enable-background:new 0 0 32 32;" xml:space="preserve">
<style type="text/css">
	.st0{fill-rule:evenodd;clip-rule:evenodd;fill:url(#path-2_2_);}
	.st1{fill-rule:evenodd;clip-rule:evenodd;fill:#FFFFFF;}
	.st2{fill:#FFFFFF;}
</style>
<g>
	<g id="矩形">
		
			<linearGradient id="path-2_2_" gradientUnits="userSpaceOnUse" x1="-1250.5421" y1="1384.8445" x2="-1250.4674" y2="1384.7802" gradientTransform="matrix(512 0 0 -512 640283 709047.3125)">
			<stop  offset="0" style="stop-color:#FF007A"/>
			<stop  offset="1" style="stop-color:#2B61EF"/>
		</linearGradient>
		<path id="path-2_1_" class="st0" d="M5.8,0.2h20.4c3.2,0,5.7,2.6,5.7,5.7v20.3c0,3.2-2.6,5.7-5.7,5.7H5.8c-3.2,0-5.7-2.6-5.7-5.7
			V5.9C0.1,2.8,2.7,0.2,5.8,0.2z"/>
	</g>
	<g>
		<path id="Fill-1" class="st1" d="M22.6,13.7c0.6,0,1.1-0.2,1.5-0.6c0.4-0.4,0.6-1,0.6-1.6s-0.2-1.2-0.6-1.6
			c-0.4-0.4-0.9-0.6-1.5-0.6c-1,0-1.9,0.7-2.9,2.2C20.7,12.9,21.6,13.7,22.6,13.7z M15.6,9.2c-0.6,0-1.1,0.2-1.5,0.6
			c-0.4,0.4-0.6,1-0.6,1.6s0.2,1.2,0.6,1.6c0.4,0.4,0.9,0.6,1.5,0.6c1,0,1.9-0.7,2.9-2.2C17.6,10,16.6,9.2,15.6,9.2z M15.6,14.7
			c-0.9,0-1.7-0.3-2.3-0.9c-0.6-0.6-0.9-1.4-0.9-2.3c0-1,0.3-1.7,0.9-2.3c0.6-0.6,1.4-0.9,2.3-0.9c1.3,0,2.5,0.8,3.5,2.4
			c1.1-1.6,2.3-2.4,3.6-2.4c0.9,0,1.7,0.3,2.3,0.9s0.9,1.4,0.9,2.3c0,0.9-0.3,1.7-0.9,2.3s-1.3,0.9-2.2,0.9c-1.3,0-2.5-0.8-3.6-2.4
			C18.1,13.9,16.9,14.7,15.6,14.7z"/>
		<path id="Fill-3" class="st1" d="M12.6,26c0.1,0,0.2,0,0.3,0s0.1-0.1,0.2-0.2c0-0.1,0.1-0.2,0.1-0.4c0-0.1,0-0.3,0-0.6
			c0-0.2,0-0.4,0-0.6s-0.1-0.3-0.1-0.4s-0.1-0.1-0.2-0.2c-0.1,0-0.2,0-0.3,0s-0.2,0-0.3,0s-0.1,0.1-0.2,0.2c0,0.1-0.1,0.2-0.1,0.4
			c0,0.1,0,0.3,0,0.6c0,0.2,0,0.4,0,0.6c0,0.1,0.1,0.3,0.1,0.4s0.1,0.1,0.2,0.2C12.4,26,12.5,26,12.6,26 M12.6,26.4
			c-0.1,0-0.3,0-0.4-0.1c-0.1,0-0.2-0.1-0.3-0.2s-0.1-0.3-0.2-0.5c0-0.2-0.1-0.4-0.1-0.7c0-0.3,0-0.5,0.1-0.7c0-0.2,0.1-0.3,0.2-0.5
			c0.1-0.1,0.2-0.2,0.3-0.2s0.2-0.1,0.4-0.1s0.3,0,0.4,0.1s0.2,0.1,0.3,0.2s0.1,0.3,0.2,0.5c0,0.2,0.1,0.4,0.1,0.7
			c0,0.3,0,0.5-0.1,0.7c0,0.2-0.1,0.3-0.2,0.5c-0.1,0.1-0.2,0.2-0.3,0.2S12.7,26.4,12.6,26.4"/>
		<path id="Fill-5" class="st2" d="M6.2,27.2c0.8-1.3,2.1,1,2.3-3.7c0-0.6-0.1-1.7-0.1-2.3c0-0.5,0-1.6,0-2.1c-0.1-1.3,0-5.1,0-5.1
			c0.1-2.8,0.5-4.8,1.1-6.1c0.4-0.9,1.1-1.6,1.8-2.3c0.8-0.6,1.5-1,2.2-1c0.8-0.1,1.5,0.6,2.1,1.9c-0.5,0.4-0.9,0.7-1.4,0.7
			c-0.3,0-0.5-0.1-0.7-0.5l-0.1-0.2c-0.3-0.5-0.6-0.7-1-0.6c-1,0.1-1.6,1.2-1.7,3.4l-0.2,2.4l-0.1,2.2L10.1,19
			c-0.1,2.8-0.5,4.9-1.2,6.2c-0.4,0.8-0.8,2-1.7,2.2C6.9,27.5,6,27.5,6.2,27.2"/>
	</g>
</g>
</svg>
