<?xml version="1.0" encoding="utf-8"?>
<!-- Generator: Adobe Illustrator 25.0.0, SVG Export Plug-In . SVG Version: 6.00 Build 0)  -->
<svg version="1.1" id="图层_1" xmlns="http://www.w3.org/2000/svg" xmlns:xlink="http://www.w3.org/1999/xlink" x="0px" y="0px"
	 width="45px" height="50px" viewBox="0 0 45 50" style="enable-background:new 0 0 45 50;" xml:space="preserve">
<style type="text/css">
	.st0{fill-rule:evenodd;clip-rule:evenodd;fill:url(#path-2_2_);}
	.st1{fill-rule:evenodd;clip-rule:evenodd;fill:#FFFFFF;}
	.st2{fill:#FFFFFF;}
</style>
<g>
	<g id="矩形">
		
			<linearGradient id="path-2_2_" gradientUnits="userSpaceOnUse" x1="-1244.5497" y1="1393.8518" x2="-1244.4442" y2="1393.7611" gradientTransform="matrix(512 0 0 -512 637217 713664.3125)">
			<stop  offset="0" style="stop-color:#FF007A"/>
			<stop  offset="1" style="stop-color:#2B61EF"/>
		</linearGradient>
		<path id="path-2_1_" class="st0" d="M8.1,2.6h28.8c4.5,0,8,3.7,8,8v28.6c0,4.5-3.7,8-8,8H8.1c-4.5,0-8-3.7-8-8V10.7
			C0.1,6.3,3.7,2.6,8.1,2.6z"/>
	</g>
	<g>
		<path id="Fill-1" class="st1" d="M31.8,21.7c0.8,0,1.6-0.3,2.1-0.8c0.6-0.6,0.8-1.4,0.8-2.3s-0.3-1.7-0.8-2.3
			c-0.6-0.6-1.3-0.8-2.1-0.8c-1.4,0-2.7,1-4.1,3.1C29.1,20.6,30.3,21.7,31.8,21.7z M21.9,15.4c-0.8,0-1.6,0.3-2.1,0.8
			c-0.6,0.6-0.8,1.4-0.8,2.3s0.3,1.7,0.8,2.3c0.6,0.6,1.3,0.8,2.1,0.8c1.4,0,2.7-1,4.1-3.1C24.7,16.5,23.3,15.4,21.9,15.4z
			 M21.9,23.1c-1.3,0-2.4-0.4-3.2-1.3c-0.8-0.8-1.3-2-1.3-3.2c0-1.4,0.4-2.4,1.3-3.2c0.8-0.8,2-1.3,3.2-1.3c1.8,0,3.5,1.1,4.9,3.4
			c1.6-2.3,3.2-3.4,5.1-3.4c1.3,0,2.4,0.4,3.2,1.3c0.8,0.8,1.3,2,1.3,3.2S36,21,35.1,21.9c-0.8,0.8-1.8,1.3-3.1,1.3
			c-1.8,0-3.5-1.1-5.1-3.4C25.4,22,23.7,23.1,21.9,23.1z"/>
		<path id="Fill-3" class="st1" d="M17.7,39.1c0.1,0,0.3,0,0.4,0c0.1,0,0.1-0.1,0.3-0.3c0-0.1,0.1-0.3,0.1-0.6c0-0.1,0-0.4,0-0.8
			c0-0.3,0-0.6,0-0.8c0-0.3-0.1-0.4-0.1-0.6c0-0.1-0.1-0.1-0.3-0.3c-0.1,0-0.3,0-0.4,0c-0.1,0-0.3,0-0.4,0c-0.1,0-0.1,0.1-0.3,0.3
			c0,0.1-0.1,0.3-0.1,0.6c0,0.1,0,0.4,0,0.8c0,0.3,0,0.6,0,0.8c0,0.1,0.1,0.4,0.1,0.6s0.1,0.1,0.3,0.3
			C17.4,39.1,17.5,39.1,17.7,39.1 M17.7,39.6c-0.1,0-0.4,0-0.6-0.1c-0.1,0-0.3-0.1-0.4-0.3c-0.1-0.1-0.1-0.4-0.3-0.7
			c0-0.3-0.1-0.6-0.1-1c0-0.4,0-0.7,0.1-1c0-0.3,0.1-0.4,0.3-0.7c0.1-0.1,0.3-0.3,0.4-0.3c0.1,0,0.3-0.1,0.6-0.1s0.4,0,0.6,0.1
			c0.1,0.1,0.3,0.1,0.4,0.3c0.1,0.1,0.1,0.4,0.3,0.7c0,0.3,0.1,0.6,0.1,1s0,0.7-0.1,1c0,0.3-0.1,0.4-0.3,0.7
			c-0.1,0.1-0.3,0.3-0.4,0.3S17.8,39.6,17.7,39.6"/>
		<path id="Fill-5" class="st2" d="M8.6,40.8c1.1-1.8,3,1.4,3.2-5.2c0-0.8-0.1-2.4-0.1-3.2c0-0.7,0-2.3,0-3c-0.1-1.8,0-7.2,0-7.2
			c0.1-3.9,0.7-6.8,1.6-8.6c0.6-1.3,1.6-2.3,2.5-3.2c1.1-0.8,2.1-1.4,3.1-1.4c1.1-0.1,2.1,0.8,3,2.7c-0.7,0.6-1.3,1-2,1
			c-0.4,0-0.7-0.1-1-0.7l-0.1-0.3c-0.4-0.7-0.8-1-1.4-0.8c-1.4,0.1-2.3,1.7-2.4,4.8l-0.3,3.4L14.6,22l-0.4,7.2
			c-0.1,3.9-0.7,6.9-1.7,8.7c-0.6,1.1-1.1,2.8-2.4,3.1C9.6,41.2,8.3,41.2,8.6,40.8"/>
	</g>
</g>
</svg>
