<?xml version="1.0" encoding="utf-8"?>
<!-- Generator: Adobe Illustrator 25.0.0, SVG Export Plug-In . SVG Version: 6.00 Build 0)  -->
<svg version="1.1" id="图层_1" xmlns="http://www.w3.org/2000/svg" xmlns:xlink="http://www.w3.org/1999/xlink" x="0px" y="0px"
	 width="33px" height="32px" viewBox="0 0 33 32" style="enable-background:new 0 0 33 32;" xml:space="preserve">
<style type="text/css">
	.st0{fill-rule:evenodd;clip-rule:evenodd;fill:url(#path-2_3_);}
	.st1{filter:url(#Adobe_OpacityMaskFilter);}
	.st2{fill-rule:evenodd;clip-rule:evenodd;fill:#FFFFFF;}
	.st3{mask:url(#mask-3_6_);fill-rule:evenodd;clip-rule:evenodd;fill:#FFFFFF;}
	.st4{filter:url(#Adobe_OpacityMaskFilter_1_);}
	.st5{mask:url(#mask-3_4_);fill-rule:evenodd;clip-rule:evenodd;fill:#FFFFFF;}
	.st6{filter:url(#Adobe_OpacityMaskFilter_2_);}
	.st7{mask:url(#mask-3_1_);fill:#FFFFFF;}
</style>
<path d="M13.6,26.9L13.6,26.9L13.6,26.9z"/>
<path d="M13.5,26.8c-0.3-0.2-0.5-0.4-0.7-0.7C13,26.4,13.2,26.6,13.5,26.8z"/>
<g id="矩形">
	
		<linearGradient id="path-2_3_" gradientUnits="userSpaceOnUse" x1="-970.0901" y1="-1071.1178" x2="-970.0153" y2="-1071.0535" gradientTransform="matrix(512 0 0 512 496692 548419.1875)">
		<stop  offset="0" style="stop-color:#FF007A"/>
		<stop  offset="1" style="stop-color:#2B61EF"/>
	</linearGradient>
	<path id="path-2_1_" class="st0" d="M6.3,0.1h20.4c3.2,0,5.7,2.6,5.7,5.7v20.3c0,3.2-2.6,5.7-5.7,5.7H6.3c-3.2,0-5.7-2.6-5.7-5.7
		V5.8C0.6,2.7,3.2,0.1,6.3,0.1z"/>
</g>
<g>
	<defs>
		<filter id="Adobe_OpacityMaskFilter" filterUnits="userSpaceOnUse" x="12.9" y="8.2" width="13.4" height="6.4">
			<feColorMatrix  type="matrix" values="1 0 0 0 0  0 1 0 0 0  0 0 1 0 0  0 0 0 1 0"/>
		</filter>
	</defs>
	<mask maskUnits="userSpaceOnUse" x="12.9" y="8.2" width="13.4" height="6.4" id="mask-3_6_">
		<g class="st1">
			<path id="path-2_7_" class="st2" d="M6.3,0.1h20.4c3.2,0,5.7,2.6,5.7,5.7v20.3c0,3.2-2.6,5.7-5.7,5.7H6.3c-3.2,0-5.7-2.6-5.7-5.7
				V5.8C0.6,2.7,3.2,0.1,6.3,0.1z"/>
		</g>
	</mask>
	<path id="Fill-1" class="st3" d="M23.1,13.7c0.6,0,1.1-0.2,1.5-0.6c0.4-0.4,0.6-1,0.6-1.6c0-0.6-0.2-1.2-0.6-1.6
		c-0.4-0.4-0.9-0.6-1.5-0.6c-1,0-1.9,0.7-2.9,2.2C21.2,12.9,22.1,13.7,23.1,13.7z M16.1,9.2c-0.6,0-1.1,0.2-1.5,0.6
		c-0.4,0.4-0.6,1-0.6,1.6c0,0.6,0.2,1.2,0.6,1.6c0.4,0.4,0.9,0.6,1.5,0.6c1,0,1.9-0.7,2.9-2.2C18.1,10,17.1,9.2,16.1,9.2z
		 M16.1,14.7c-0.9,0-1.7-0.3-2.3-0.9c-0.6-0.6-0.9-1.4-0.9-2.3c0-1,0.3-1.7,0.9-2.3c0.6-0.6,1.4-0.9,2.3-0.9c1.3,0,2.5,0.8,3.5,2.4
		c1.1-1.6,2.3-2.4,3.6-2.4c0.9,0,1.7,0.3,2.3,0.9s0.9,1.4,0.9,2.3c0,0.9-0.3,1.7-0.9,2.3c-0.6,0.6-1.3,0.9-2.2,0.9
		c-1.3,0-2.5-0.8-3.6-2.4C18.6,13.9,17.4,14.7,16.1,14.7z"/>
	<defs>
		<filter id="Adobe_OpacityMaskFilter_1_" filterUnits="userSpaceOnUse" x="12.1" y="23.4" width="1.9" height="2.9">
			<feColorMatrix  type="matrix" values="1 0 0 0 0  0 1 0 0 0  0 0 1 0 0  0 0 0 1 0"/>
		</filter>
	</defs>
	<mask maskUnits="userSpaceOnUse" x="12.1" y="23.4" width="1.9" height="2.9" id="mask-3_4_">
		<g class="st4">
			<path id="path-2_5_" class="st2" d="M6.3,0.1h20.4c3.2,0,5.7,2.6,5.7,5.7v20.3c0,3.2-2.6,5.7-5.7,5.7H6.3c-3.2,0-5.7-2.6-5.7-5.7
				V5.8C0.6,2.7,3.2,0.1,6.3,0.1z"/>
		</g>
	</mask>
	<path id="Fill-3" class="st5" d="M13.1,26c0.1,0,0.2,0,0.3,0c0.1,0,0.1-0.1,0.2-0.2c0-0.1,0.1-0.2,0.1-0.4c0-0.1,0-0.3,0-0.6
		c0-0.2,0-0.4,0-0.6s-0.1-0.3-0.1-0.4s-0.1-0.1-0.2-0.2c-0.1,0-0.2,0-0.3,0c-0.1,0-0.2,0-0.3,0c-0.1,0-0.1,0.1-0.2,0.2
		c0,0.1-0.1,0.2-0.1,0.4c0,0.1,0,0.3,0,0.6c0,0.2,0,0.4,0,0.6c0,0.1,0.1,0.3,0.1,0.4c0,0.1,0.1,0.1,0.2,0.2C12.9,26,13,26,13.1,26
		 M13.1,26.4c-0.1,0-0.3,0-0.4-0.1c-0.1,0-0.2-0.1-0.3-0.2c-0.1-0.1-0.1-0.3-0.2-0.5c0-0.2-0.1-0.4-0.1-0.7c0-0.3,0-0.5,0.1-0.7
		c0-0.2,0.1-0.3,0.2-0.5c0.1-0.1,0.2-0.2,0.3-0.2c0.1,0,0.2-0.1,0.4-0.1s0.3,0,0.4,0.1s0.2,0.1,0.3,0.2c0.1,0.1,0.1,0.3,0.2,0.5
		c0,0.2,0.1,0.4,0.1,0.7c0,0.3,0,0.5-0.1,0.7c0,0.2-0.1,0.3-0.2,0.5c-0.1,0.1-0.2,0.2-0.3,0.2C13.4,26.3,13.2,26.4,13.1,26.4"/>
	<defs>
		<filter id="Adobe_OpacityMaskFilter_2_" filterUnits="userSpaceOnUse" x="6.7" y="4.5" width="9.4" height="22.9">
			<feColorMatrix  type="matrix" values="1 0 0 0 0  0 1 0 0 0  0 0 1 0 0  0 0 0 1 0"/>
		</filter>
	</defs>
	<mask maskUnits="userSpaceOnUse" x="6.7" y="4.5" width="9.4" height="22.9" id="mask-3_1_">
		<g class="st6">
			<path id="path-2_2_" class="st2" d="M6.3,0.1h20.4c3.2,0,5.7,2.6,5.7,5.7v20.3c0,3.2-2.6,5.7-5.7,5.7H6.3c-3.2,0-5.7-2.6-5.7-5.7
				V5.8C0.6,2.7,3.2,0.1,6.3,0.1z"/>
		</g>
	</mask>
	<path id="Fill-5" class="st7" d="M6.7,27.2c0.8-1.3,2.1,1,2.3-3.7c0-0.6-0.1-1.7-0.1-2.3c0-0.5,0-1.6,0-2.1c-0.1-1.3,0-5.1,0-5.1
		C9,11.2,9.4,9.2,10,7.9c0.4-0.9,1.1-1.6,1.8-2.3c0.8-0.6,1.5-1,2.2-1c0.8-0.1,1.5,0.6,2.1,1.9c-0.5,0.4-0.9,0.7-1.4,0.7
		c-0.3,0-0.5-0.1-0.7-0.5l-0.1-0.2c-0.3-0.5-0.6-0.7-1-0.6c-1,0.1-1.6,1.2-1.7,3.4L11,11.7l-0.1,2.2L10.6,19
		c-0.1,2.8-0.5,4.9-1.2,6.2C9,26,8.6,27.2,7.7,27.4C7.4,27.5,6.5,27.5,6.7,27.2"/>
</g>
</svg>
