<?xml version="1.0" encoding="utf-8"?>
<!-- Generator: Adobe Illustrator 25.0.0, SVG Export Plug-In . SVG Version: 6.00 Build 0)  -->
<svg version="1.1" id="图层_1" xmlns="http://www.w3.org/2000/svg" xmlns:xlink="http://www.w3.org/1999/xlink" x="0px" y="0px"
	 width="33px" height="32px" viewBox="0 0 33 32" style="enable-background:new 0 0 33 32;" xml:space="preserve">
<style type="text/css">
	.st0{fill-rule:evenodd;clip-rule:evenodd;fill:url(#path-2_2_);}
	.st1{fill-rule:evenodd;clip-rule:evenodd;fill:#FFFFFF;}
	.st2{fill:#FFFFFF;}
</style>
<g>
	<g id="矩形">
		
			<linearGradient id="path-2_2_" gradientUnits="userSpaceOnUse" x1="-1250.54" y1="1384.8456" x2="-1250.4696" y2="1384.785" gradientTransform="matrix(512 0 0 -512 640283 709047.3125)">
			<stop  offset="0" style="stop-color:#FF007A"/>
			<stop  offset="1" style="stop-color:#2B61EF"/>
		</linearGradient>
		<path id="path-2_1_" class="st0" d="M6.9,0h19.2c3,0,5.4,2.4,5.4,5.4v19.1c0,3-2.4,5.4-5.4,5.4H6.9c-3,0-5.4-2.4-5.4-5.4V5.4
			C1.5,2.4,4,0,6.9,0z"/>
	</g>
	<g>
		<path id="Fill-1" class="st1" d="M22.7,12.7c0.6,0,1-0.2,1.4-0.6c0.4-0.4,0.6-0.9,0.6-1.5c0-0.6-0.2-1.1-0.6-1.5
			c-0.4-0.4-0.8-0.6-1.4-0.6c-0.9,0-1.8,0.7-2.7,2.1C20.9,12,21.7,12.7,22.7,12.7z M16.1,8.5c-0.6,0-1,0.2-1.4,0.6
			c-0.4,0.4-0.6,0.9-0.6,1.5c0,0.6,0.2,1.1,0.6,1.5c0.4,0.4,0.8,0.6,1.4,0.6c0.9,0,1.8-0.7,2.7-2.1C18,9.3,17,8.5,16.1,8.5z
			 M16.1,13.7c-0.8,0-1.6-0.3-2.2-0.8c-0.6-0.6-0.8-1.3-0.8-2.2c0-0.9,0.3-1.6,0.8-2.2c0.6-0.6,1.3-0.8,2.2-0.8
			c1.2,0,2.4,0.8,3.3,2.3c1-1.5,2.2-2.3,3.4-2.3c0.8,0,1.6,0.3,2.2,0.8c0.6,0.6,0.8,1.3,0.8,2.2c0,0.8-0.3,1.6-0.8,2.2
			c-0.6,0.6-1.2,0.8-2.1,0.8c-1.2,0-2.4-0.8-3.4-2.3C18.4,12.9,17.3,13.7,16.1,13.7z"/>
		<path id="Fill-3" class="st1" d="M13.3,24.3c0.1,0,0.2,0,0.3,0s0.1-0.1,0.2-0.2c0-0.1,0.1-0.2,0.1-0.4c0-0.1,0-0.3,0-0.6
			c0-0.2,0-0.4,0-0.6s-0.1-0.3-0.1-0.4s-0.1-0.1-0.2-0.2c-0.1,0-0.2,0-0.3,0s-0.2,0-0.3,0s-0.1,0.1-0.2,0.2c0,0.1-0.1,0.2-0.1,0.4
			c0,0.1,0,0.3,0,0.6c0,0.2,0,0.4,0,0.6c0,0.1,0.1,0.3,0.1,0.4s0.1,0.1,0.2,0.2C13.1,24.3,13.2,24.3,13.3,24.3 M13.3,24.7
			c-0.1,0-0.3,0-0.4-0.1c-0.1,0-0.2-0.1-0.3-0.2s-0.1-0.3-0.2-0.5c0-0.2-0.1-0.4-0.1-0.7c0-0.3,0-0.5,0.1-0.7c0-0.2,0.1-0.3,0.2-0.5
			c0.1-0.1,0.2-0.2,0.3-0.2c0.1,0,0.2-0.1,0.4-0.1s0.3,0,0.4,0.1s0.2,0.1,0.3,0.2s0.1,0.3,0.2,0.5c0,0.2,0.1,0.4,0.1,0.7
			c0,0.3,0,0.5-0.1,0.7c0,0.2-0.1,0.3-0.2,0.5c-0.1,0.1-0.2,0.2-0.3,0.2S13.4,24.7,13.3,24.7"/>
		<path id="Fill-5" class="st2" d="M7.2,25.5c0.8-1.2,2,0.9,2.2-3.5c0-0.6-0.1-1.6-0.1-2.2c0-0.5,0-1.5,0-2c-0.1-1.2,0-4.8,0-4.8
			c0.1-2.6,0.5-4.5,1-5.7c0.4-0.8,1-1.5,1.7-2.2c0.8-0.6,1.4-0.9,2.1-0.9c0.8-0.1,1.4,0.6,2,1.8c-0.5,0.4-0.8,0.7-1.3,0.7
			c-0.3,0-0.5-0.1-0.7-0.5L14,6c-0.3-0.5-0.6-0.7-0.9-0.6c-0.9,0.1-1.5,1.1-1.6,3.2l-0.2,2.3l-0.1,2.1l-0.3,4.8
			c-0.1,2.6-0.5,4.6-1.1,5.8c-0.4,0.8-0.8,1.9-1.6,2.1C7.9,25.7,7,25.7,7.2,25.5"/>
	</g>
</g>
</svg>
