<?xml version="1.0" encoding="utf-8"?>
<!-- Generator: Adobe Illustrator 25.0.0, SVG Export Plug-In . SVG Version: 6.00 Build 0)  -->
<svg version="1.1" id="图层_1" xmlns="http://www.w3.org/2000/svg" xmlns:xlink="http://www.w3.org/1999/xlink" x="0px" y="0px"
	 width="99px" height="16px" viewBox="0 0 99 16" style="enable-background:new 0 0 99 16;" xml:space="preserve">
<style type="text/css">
	.st0{enable-background:new    ;}
	.st1{fill:#FFFFFF;}
</style>
<g class="st0">
	<path class="st1" d="M17.1,12.5c-1.8,0-3.2-0.4-4.3-1.6L14,9.7c0.9,0.9,1.9,1.2,3.1,1.2c1.6,0,2.5-0.7,2.5-1.9c0-0.5-0.2-1-0.5-1.3
		c-0.3-0.3-0.6-0.4-1.3-0.5L16.4,7c-1-0.1-1.8-0.5-2.3-1c-0.6-0.6-0.9-1.3-0.9-2.3c0-2.1,1.5-3.6,4.1-3.6c1.6,0,2.7,0.4,3.8,1.4
		l-1.2,1.2c-0.8-0.7-1.6-0.9-2.7-0.9c-1.4,0-2.2,0.8-2.2,1.9c0,0.4,0.1,0.8,0.5,1.1c0.3,0.3,0.8,0.5,1.4,0.6l1.4,0.2
		c1.1,0.2,1.8,0.4,2.3,0.9c0.7,0.6,1,1.5,1,2.5C21.5,11.2,19.7,12.5,17.1,12.5z"/>
	<path class="st1" d="M29.1,12.4v-0.9c-0.6,0.7-1.4,1-2.3,1c-0.9,0-1.6-0.3-2.1-0.8c-0.7-0.7-0.9-1.5-0.9-2.5V3.7h1.8V9
		c0,1.4,0.8,1.9,1.8,1.9c1,0,1.8-0.6,1.8-1.9V3.7h1.8v8.7H29.1z"/>
	<path class="st1" d="M44.2,12.4V7.1c0-1.4-0.8-1.9-1.8-1.9c-0.9,0-1.8,0.6-1.8,1.9v5.4h-1.8V7.1c0-1.4-0.8-1.9-1.8-1.9
		s-1.8,0.6-1.8,1.9v5.3h-1.8V3.7h1.7v0.9c0.6-0.6,1.4-1,2.3-1c1.1,0,1.9,0.4,2.5,1.3c0.7-0.9,1.6-1.3,2.7-1.3c0.9,0,1.7,0.3,2.2,0.8
		c0.7,0.7,0.9,1.5,0.9,2.5v5.6H44.2z"/>
	<path class="st1" d="M51.4,12.5c-1.4,0-2.6-0.2-3.7-1.3l1.2-1.2c0.7,0.7,1.6,0.9,2.5,0.9c1.1,0,1.9-0.4,1.9-1.2c0-0.6-0.3-1-1.2-1
		l-1.4-0.1c-1.6-0.1-2.6-0.9-2.6-2.4c0-1.7,1.5-2.7,3.3-2.7c1.3,0,2.4,0.3,3.2,1l-1.1,1.1c-0.5-0.5-1.3-0.6-2.1-0.6
		c-1,0-1.6,0.5-1.6,1.1c0,0.5,0.3,0.9,1.2,1l1.4,0.1c1.6,0.1,2.6,0.9,2.6,2.5C55.1,11.6,53.5,12.5,51.4,12.5z"/>
	<path class="st1" d="M65.7,12.4h-1.5l-2-6.1l-2,6.1h-1.5l-2.7-8.7h1.9l1.7,6.1l2-6.1h1.4l2,6.1l1.7-6.1h1.9L65.7,12.4z"/>
	<path class="st1" d="M74.7,12.4v-0.8c-0.6,0.6-1.2,0.9-2.3,0.9c-1.1,0-1.8-0.3-2.3-0.8c-0.4-0.5-0.7-1.1-0.7-1.9c0-1.5,1-2.5,3-2.5
		h2.3V6.7c0-1.1-0.5-1.6-1.9-1.6c-1,0-1.4,0.2-1.9,0.8l-1.2-1.1c0.8-1,1.7-1.3,3.1-1.3c2.4,0,3.6,1,3.6,3v5.8H74.7z M74.6,8.6h-2
		c-1,0-1.6,0.5-1.6,1.3c0,0.8,0.5,1.2,1.6,1.2c0.7,0,1.2-0.1,1.6-0.5c0.3-0.3,0.4-0.7,0.4-1.3V8.6z"/>
	<path class="st1" d="M85.2,11.7c-0.5,0.5-1.2,0.8-2.1,0.8c-0.9,0-1.6-0.2-2.3-1v4.4h-1.8V3.7h1.7v0.9c0.7-0.8,1.4-1,2.3-1
		c0.9,0,1.6,0.3,2.1,0.8c0.9,0.9,1,2.4,1,3.7S86.1,10.9,85.2,11.7z M82.6,5.2c-1.6,0-1.8,1.3-1.8,2.9c0,1.5,0.2,2.9,1.8,2.9
		c1.6,0,1.8-1.4,1.8-2.9C84.5,6.5,84.2,5.2,82.6,5.2z"/>
</g>
</svg>
